:SAMPLES-PER-SECOND 30
:FULLY-SPECIFIED
:DEGREES
478
root  62.966 30.7215 -77.1129 178.467 78.8481 173.541
RightUpLeg  -42.9711 -12.5549 7.37535
RightLeg  73.591 -0.614797 -1.89927
RightFoot  -2.21205 -0.0104016 -0.16127
RightToes  -32.6104 -0.162303 -0.269693
Spine  11.7524 -0.565013 -3.86099
Spine1  20.3978 -0.769523 -6.90626
HEad  5.4288 -20.8256 22.5387
LeftShoulder1  0 -2.42657e-020 -4.95415e-022
LeftArm  -40.442 -20.8167 -62.9792
LeftForeArm  48.5256 -12.9207 -2.29307
LeftHand  0.446557 -6.71776 -7.97567
RightShoulder  0 2.42657e-020 1.07489e-018
RightArm  -23.5944 14.5017 85.3221
RightForeArm  43.7833 24.3633 4.55921
RightHand  0.0899326 24.1548 0.79052
LeftUpLeg  -24.5023 1.45429 -1.60265
LeftLeg  48.872 -4.9065 -4.92814
LeftFoot  -19.5001 0.419094 2.43861
LeftToes  -13.9293 8.63562e-007 1.17448e-007
479
root  64.747 30.985 -77.4458 179.132 77.8446 173.79
RightUpLeg  -45.8723 -15.9432 9.56151
RightLeg  61.3632 -1.52045 -2.49671
RightFoot  -3.7774 -0.0223893 -0.301458
RightToes  -32.2247 -0.159537 -0.267127
Spine  11.5353 -1.60333 -3.36077
Spine1  20.0289 -4.17337 -4.64981
HEad  3.90787 -21.7836 23.5371
LeftShoulder1  0 -2.42657e-020 -4.95415e-022
LeftArm  -37.3627 -25.7146 -65.3158
LeftForeArm  48.0499 -14.0464 -2.50312
LeftHand  0.429334 -6.86943 -7.52158
RightShoulder  0 2.42657e-020 1.07489e-018
RightArm  -26.3289 13.7996 83.179
RightForeArm  43.0161 23.5199 4.38165
RightHand  0.279877 24.0762 1.68281
LeftUpLeg  -19.9542 0.0451006 -1.59294
LeftLeg  45.2489 -4.82648 -4.27356
LeftFoot  -20.3371 0.414961 2.31322
LeftToes  -13.1015 8.63562e-007 1.17448e-007
480
root  66.5407 31.2733 -77.7179 178.489 76.3966 172.292
RightUpLeg  -47.1049 -18.9828 11.5827
RightLeg  45.6689 -3.6371 -3.30082
RightFoot  -5.98912 -0.0202559 -0.00966059
RightToes  -28.2373 -0.131973 -0.23953
Spine  11.1499 -2.50179 -2.90488
Spine1  19.4176 -7.09983 -2.74808
HEad  0.969162 -23.0325 25.2632
LeftShoulder1  0 -2.42657e-020 -4.95415e-022
LeftArm  -32.436 -30.9284 -68.2107
LeftForeArm  47.2533 -15.2918 -2.73847
LeftHand  0.437428 -6.90325 -7.62032
RightShoulder  0 2.42657e-020 1.07489e-018
RightArm  -28.5885 12.7763 80.5015
RightForeArm  41.6952 23.6059 4.40154
RightHand  0.456064 23.7876 2.53577
LeftUpLeg  -15.0999 -1.46239 -1.84095
LeftLeg  39.9847 -5.09798 -3.7403
LeftFoot  -20.1976 0.399712 2.24396
LeftToes  -13.2605 8.63562e-007 1.17448e-007
481
root  68.366 31.4954 -78.006 176.157 74.0561 168.859
RightUpLeg  -48.158 -24.3414 14.3586
RightLeg  29.9124 -6.75817 -3.32524
RightFoot  -7.50972 0.0144211 0.597341
RightToes  -33.8584 -0.171373 -0.277868
Spine  10.4476 -3.30324 -2.75363
Spine1  18.4709 -9.52712 -1.5388
HEad  -2.527 -25.2258 27.8236
LeftShoulder1  0 -2.42657e-020 -4.95415e-022
LeftArm  -24.685 -36.0621 -71.896
LeftForeArm  46.3427 -16.7491 -3.01755
LeftHand  0.460105 -7.26663 -7.61352
RightShoulder  0 2.42657e-020 1.07489e-018
RightArm  -30.4878 10.7563 77.5821
RightForeArm  39.1821 24.5085 4.59613
RightHand  0.462262 23.3037 2.6121
LeftUpLeg  -10.1345 -3.44182 -2.61203
LeftLeg  33.9563 -5.85404 -3.41165
LeftFoot  -18.7076 0.368889 2.23919
LeftToes  -14.8037 8.63562e-007 1.17448e-007
482
root  70.3012 31.6272 -78.2587 174.24 71.2356 166.019
RightUpLeg  -49.7842 -31.006 18.417
RightLeg  18.6793 -9.45034 -2.51676
RightFoot  -7.85348 0.0488865 1.08983
RightToes  -33.3569 -0.167707 -0.274607
Spine  9.386 -3.98652 -2.7234
Spine1  16.9695 -11.2052 -1.14996
HEad  -4.87656 -27.7055 29.7166
LeftShoulder1  0 -2.42657e-020 -4.95415e-022
LeftArm  -15.8322 -40.1467 -76.5677
LeftForeArm  43.7757 -18.1965 -3.30153
LeftHand  0.563655 -7.83099 -8.59861
RightShoulder  0 2.42657e-020 1.07489e-018
RightArm  -32.3563 7.5668 74.9741
RightForeArm  37.3323 25.6273 4.83959
RightHand  0.393791 22.8193 2.32175
LeftUpLeg  -4.82298 -5.66552 -3.34702
LeftLeg  27.7532 -6.63533 -2.95828
LeftFoot  -16.4859 0.309085 2.13332
LeftToes  -16.9227 8.63562e-007 1.17448e-007
483
root  72.3614 31.6222 -78.5746 172.384 68.0902 164.283
RightUpLeg  -47.399 -31.7908 15.7004
RightLeg  16.0307 -14.5733 -3.14726
RightFoot  -8.42636 0.123956 2.06026
RightToes  -21.8458 -0.0919856 -0.191495
Spine  8.54943 -4.87672 -2.59132
Spine1  15.8111 -12.9545 -1.07206
HEad  -5.45467 -29.791 29.3424
LeftShoulder1  0 -2.42657e-020 -4.95415e-022
LeftArm  -8.6462 -42.97 -81.5813
LeftForeArm  39.7876 -19.7415 -3.61121
LeftHand  0.664467 -8.27798 -9.54057
RightShoulder  0 2.42657e-020 1.07489e-018
RightArm  -34.8186 5.17277 72.9479
RightForeArm  36.4981 26.3928 5.00836
RightHand  0.353551 22.6474 2.13601
LeftUpLeg  0.744035 -9.11842 -4.51764
LeftLeg  23.4998 -5.8864 -2.11943
LeftFoot  -14.2517 0.201125 1.60869
LeftToes  -18.5046 8.63562e-007 1.17448e-007
484
root  74.5262 31.5178 -78.8378 173.651 65.7381 166.028
RightUpLeg  -45.1107 -32.2667 14.2221
RightLeg  19.4976 -16.4264 -4.57366
RightFoot  -9.14024 0.17845 2.60996
RightToes  -6.74883 -0.0205116 -0.0627218
Spine  7.71217 -5.61665 -1.77775
Spine1  14.1813 -14.357 0.0958775
HEad  -6.55314 -30.8823 27.2686
LeftShoulder1  0 -2.42657e-020 -4.95415e-022
LeftArm  -4.01266 -43.6939 -87.5063
LeftForeArm  35.6867 -22.304 -4.13475
LeftHand  0.729205 -8.06036 -10.701
RightShoulder  0 2.42657e-020 1.07489e-018
RightArm  -37.1568 2.77658 70.5777
RightForeArm  35.4524 28.4459 5.4715
RightHand  0.396554 22.1787 2.39372
LeftUpLeg  4.2211 -8.65775 -3.23761
LeftLeg  23.5604 -7.41802 -2.67554
LeftFoot  -12.1413 0.17144 1.6119
LeftToes  -24.6774 8.63562e-007 1.17448e-007
485
root  76.5256 31.3947 -78.898 175.627 65.6536 168.325
RightUpLeg  -45.0202 -29.9049 12.7913
RightLeg  26.43 -17.0297 -6.99711
RightFoot  -4.06138 0.0175544 0.872785
RightToes  1.83477 0.00428696 0.0174306
Spine  7.31504 -5.80896 -0.727878
Spine1  12.9573 -14.8809 1.97243
HEad  -10.0941 -30.334 26.6883
LeftShoulder1  0 -2.42657e-020 -4.95415e-022
LeftArm  -1.85943 -43.8314 -93.3311
LeftForeArm  31.8284 -25.8098 -4.88177
LeftHand  0.707148 -6.60195 -12.5973
RightShoulder  0 2.42657e-020 1.07489e-018
RightArm  -39.2108 1.79521 68.5827
RightForeArm  33.2357 30.9265 6.05733
RightHand  0.122044 21.5375 1.01198
LeftUpLeg  3.44331 -6.67628 -0.844738
LeftLeg  30.6089 -8.10442 -4.09949
LeftFoot  -8.57332 0.0767781 1.02427
LeftToes  -35.2312 8.63562e-007 1.17448e-007
486
root  78.6909 31.3897 -78.781 178.154 68.545 171.965
RightUpLeg  -44.3498 -28.0146 13.6804
RightLeg  34.1396 -15.09 -8.70805
RightFoot  -3.41974 0.00128364 0.420635
RightToes  4.08661 0.00878219 0.0389971
Spine  7.58706 -5.61207 0.265424
Spine1  13.0132 -14.2821 3.21716
HEad  -12.489 -27.0832 26.4199
LeftShoulder1  0 -2.42657e-020 -4.95415e-022
LeftArm  -2.68558 -43.8434 -96.9646
LeftForeArm  25.5905 -29.2973 -5.67153
LeftHand  0.558565 -4.67819 -14.0007
RightShoulder  0 2.42657e-020 1.07489e-018
RightArm  -38.9584 4.1503 68.0184
RightForeArm  31.4102 29.5889 5.74006
RightHand  -0.521373 20.7262 -2.48126
LeftUpLeg  0.57331 -3.2071 2.05059
LeftLeg  42.9126 -6.63101 -5.39188
LeftFoot  -1.62198 -0.0072449 -0.511818
LeftToes  -36.0114 8.63562e-007 1.17448e-007
487
root  80.7995 31.4012 -78.4807 179.457 73.5746 174.197
RightUpLeg  -40.4836 -25.2758 14.9286
RightLeg  35.3589 -13.367 -8.12611
RightFoot  -5.74377 0.0329704 1.03489
RightToes  8.13659 0.0106268 0.0781648
Spine  7.47336 -5.17787 0.178766
Spine1  12.8732 -12.8931 2.15497
HEad  -10.4561 -23.3055 26.5584
LeftShoulder1  0 -2.42657e-020 -4.95415e-022
LeftArm  -3.28717 -44.7646 -97.5177
LeftForeArm  17.1734 -30.0787 -5.85501
LeftHand  0.407488 -2.77574 -17.1122
RightShoulder  0 2.42657e-020 1.07489e-018
RightArm  -38.0818 6.42701 71.2203
RightForeArm  32.4223 28.7115 5.5351
RightHand  -0.760412 19.2919 -4.10314
LeftUpLeg  -3.85153 -0.129052 3.44782
LeftLeg  56.3477 -3.58413 -4.6947
LeftFoot  8.04857 0.128853 -1.83139
LeftToes  -20.4097 8.63562e-007 1.17448e-007
